<svg xmlns="http://www.w3.org/2000/svg" xmlns:xlink="http://www.w3.org/1999/xlink" width="100%" zoomAndPan="magnify" viewBox="55 148 275 82" height="100%" preserveAspectRatio="xMidYMid meet" version="1.0"><defs><g/><clipPath id="e9554d484a"><rect x="0" width="263" y="0" height="124"/></clipPath><clipPath id="27aa217e26"><rect x="0" width="11" y="0" height="9"/></clipPath></defs><g transform="matrix(1, 0, 0, 1, 60, 126)"><g clip-path="url(#e9554d484a)"><g fill="#ffffff" fill-opacity="1"><g transform="translate(0.0520538, 98.391803)"><g><path d="M 32.671875 -72.34375 C 40.765625 -72.34375 46.953125 -70.320312 51.234375 -66.28125 C 55.515625 -62.238281 58.066406 -56.828125 58.890625 -50.046875 L 44.390625 -50.046875 C 43.984375 -53.742188 42.75 -56.617188 40.6875 -58.671875 C 38.632812 -60.734375 35.796875 -61.765625 32.171875 -61.765625 C 29.222656 -61.765625 26.820312 -61.046875 24.96875 -59.609375 C 23.125 -58.171875 22.203125 -56.078125 22.203125 -53.328125 C 22.203125 -50.316406 23.3125 -47.953125 25.53125 -46.234375 C 27.757812 -44.523438 31.679688 -43.019531 37.296875 -41.71875 C 45.046875 -39.9375 50.75 -37.226562 54.40625 -33.59375 C 58.070312 -29.96875 59.90625 -25.28125 59.90625 -19.53125 C 59.90625 -13.082031 57.367188 -7.972656 52.296875 -4.203125 C 47.234375 -0.441406 41.035156 1.4375 33.703125 1.4375 C 25.078125 1.4375 18.191406 -0.460938 13.046875 -4.265625 C 7.910156 -8.066406 5 -13.632812 4.3125 -20.96875 L 18.8125 -20.96875 C 19.5625 -17.195312 21.269531 -14.28125 23.9375 -12.21875 C 26.613281 -10.164062 29.800781 -9.140625 33.5 -9.140625 C 36.789062 -9.140625 39.546875 -9.960938 41.765625 -11.609375 C 43.992188 -13.253906 45.109375 -15.414062 45.109375 -18.09375 C 45.109375 -21.101562 44.03125 -23.53125 41.875 -25.375 C 39.71875 -27.226562 36.070312 -28.769531 30.9375 -30 C 22.988281 -31.925781 17.0625 -34.476562 13.15625 -37.65625 C 9.25 -40.84375 7.296875 -45.488281 7.296875 -51.59375 C 7.296875 -57.894531 9.757812 -62.925781 14.6875 -66.6875 C 19.625 -70.457031 25.617188 -72.34375 32.671875 -72.34375 Z M 32.671875 -72.34375 "/></g></g></g><g fill="#ffffff" fill-opacity="1"><g transform="translate(62.531423, 98.391803)"><g><path d="M 64.640625 -59.8125 L 40.59375 -59.8125 L 40.59375 0 L 26.40625 0 L 26.40625 -59.8125 L 2.359375 -59.8125 L 2.359375 -70.90625 L 64.640625 -70.90625 Z M 64.640625 -59.8125 "/></g></g></g><g fill="#e8c565" fill-opacity="1"><g transform="translate(126.554193, 98.391803)"><g><path d="M 61.25 -11.203125 L 61.25 0 L 5.140625 0 L 5.140625 -10.796875 L 43.875 -59.8125 L 8.015625 -59.8125 L 8.015625 -70.90625 L 60.734375 -70.90625 L 60.734375 -59.90625 L 22.296875 -11.203125 Z M 61.25 -11.203125 "/></g></g></g><g fill="#e8c565" fill-opacity="1"><g transform="translate(190.472236, 98.391803)"><g><path d="M 47.578125 -21.375 L 23.734375 -21.375 L 16.640625 0 L 1.546875 0 L 27.125 -70.90625 L 44.90625 -70.90625 L 69.984375 0 L 54.5625 0 Z M 35.765625 -58.78125 L 27.328125 -32.578125 L 43.984375 -32.578125 Z M 35.765625 -58.78125 "/></g></g></g></g></g><g transform="matrix(1, 0, 0, 1, 312, 153)"><g clip-path="url(#27aa217e26)"><g fill="#ffffff" fill-opacity="1"><g transform="translate(0.201283, 6.758973)"><g><path d="M 4.0625 -3.75 L 2.546875 -3.75 L 2.546875 0 L 1.65625 0 L 1.65625 -3.75 L 0.140625 -3.75 L 0.140625 -4.453125 L 4.0625 -4.453125 Z M 4.0625 -3.75 "/></g></g></g><g fill="#ffffff" fill-opacity="1"><g transform="translate(4.217265, 6.758973)"><g><path d="M 5.375 -4.453125 L 5.375 0 L 4.484375 0 L 4.484375 -2.0625 C 4.484375 -2.757812 4.488281 -3.265625 4.5 -3.578125 C 4.375 -3.066406 4.234375 -2.5625 4.078125 -2.0625 L 3.453125 0 L 2.484375 0 L 1.859375 -2.078125 C 1.691406 -2.617188 1.554688 -3.117188 1.453125 -3.578125 C 1.460938 -3.265625 1.46875 -2.757812 1.46875 -2.0625 L 1.46875 0 L 0.578125 0 L 0.578125 -4.453125 L 1.984375 -4.453125 L 2.984375 -0.8125 L 4 -4.453125 Z M 5.375 -4.453125 "/></g></g></g></g></g></svg>