<svg xmlns="http://www.w3.org/2000/svg" xmlns:xlink="http://www.w3.org/1999/xlink" width="100%" zoomAndPan="magnify" viewBox="55 148 275 82" height="100%" preserveAspectRatio="xMidYMid meet" version="1.0"><defs><g/></defs><g fill="#ffffff" fill-opacity="1"><g transform="translate(50.410556, 224.999985)"><g><path d="M 32.671875 -72.34375 C 40.765625 -72.34375 46.953125 -70.320312 51.234375 -66.28125 C 55.515625 -62.238281 58.066406 -56.828125 58.890625 -50.046875 L 44.390625 -50.046875 C 43.984375 -53.742188 42.75 -56.617188 40.6875 -58.671875 C 38.632812 -60.734375 35.796875 -61.765625 32.171875 -61.765625 C 29.222656 -61.765625 26.820312 -61.046875 24.96875 -59.609375 C 23.125 -58.171875 22.203125 -56.078125 22.203125 -53.328125 C 22.203125 -50.316406 23.3125 -47.953125 25.53125 -46.234375 C 27.757812 -44.523438 31.679688 -43.019531 37.296875 -41.71875 C 45.046875 -39.9375 50.75 -37.226562 54.40625 -33.59375 C 58.070312 -29.96875 59.90625 -25.28125 59.90625 -19.53125 C 59.90625 -13.082031 57.367188 -7.972656 52.296875 -4.203125 C 47.234375 -0.441406 41.035156 1.4375 33.703125 1.4375 C 25.078125 1.4375 18.191406 -0.460938 13.046875 -4.265625 C 7.910156 -8.066406 5 -13.632812 4.3125 -20.96875 L 18.8125 -20.96875 C 19.5625 -17.195312 21.269531 -14.28125 23.9375 -12.21875 C 26.613281 -10.164062 29.800781 -9.140625 33.5 -9.140625 C 36.789062 -9.140625 39.546875 -9.960938 41.765625 -11.609375 C 43.992188 -13.253906 45.109375 -15.414062 45.109375 -18.09375 C 45.109375 -21.101562 44.03125 -23.53125 41.875 -25.375 C 39.71875 -27.226562 36.070312 -28.769531 30.9375 -30 C 22.988281 -31.925781 17.0625 -34.476562 13.15625 -37.65625 C 9.25 -40.84375 7.296875 -45.488281 7.296875 -51.59375 C 7.296875 -57.894531 9.757812 -62.925781 14.6875 -66.6875 C 19.625 -70.457031 25.617188 -72.34375 32.671875 -72.34375 Z M 32.671875 -72.34375 "/></g></g></g><g fill="#ffffff" fill-opacity="1"><g transform="translate(112.889663, 224.999985)"><g><path d="M 64.640625 -59.8125 L 40.59375 -59.8125 L 40.59375 0 L 26.40625 0 L 26.40625 -59.8125 L 2.359375 -59.8125 L 2.359375 -70.90625 L 64.640625 -70.90625 Z M 64.640625 -59.8125 "/></g></g></g><g fill="#e8c565" fill-opacity="1"><g transform="translate(176.914458, 224.999985)"><g><path d="M 61.25 -11.203125 L 61.25 0 L 5.140625 0 L 5.140625 -10.796875 L 43.875 -59.8125 L 8.015625 -59.8125 L 8.015625 -70.90625 L 60.734375 -70.90625 L 60.734375 -59.90625 L 22.296875 -11.203125 Z M 61.25 -11.203125 "/></g></g></g><g fill="#e8c565" fill-opacity="1"><g transform="translate(240.832224, 224.999985)"><g><path d="M 47.578125 -21.375 L 23.734375 -21.375 L 16.640625 0 L 1.546875 0 L 27.125 -70.90625 L 44.90625 -70.90625 L 69.984375 0 L 54.5625 0 Z M 35.765625 -58.78125 L 27.328125 -32.578125 L 43.984375 -32.578125 Z M 35.765625 -58.78125 "/></g></g></g><g fill="#ffffff" fill-opacity="1"><g transform="translate(302.559798, 157.146683)"><g><path d="M 1.390625 -10.171875 C 1.953125 -10.742188 2.679688 -11.03125 3.578125 -11.03125 C 4.472656 -11.03125 5.203125 -10.742188 5.765625 -10.171875 C 6.328125 -9.609375 6.609375 -8.882812 6.609375 -8 C 6.609375 -7.113281 6.328125 -6.382812 5.765625 -5.8125 C 5.203125 -5.25 4.472656 -4.96875 3.578125 -4.96875 C 2.679688 -4.96875 1.953125 -5.25 1.390625 -5.8125 C 0.828125 -6.382812 0.546875 -7.113281 0.546875 -8 C 0.546875 -8.882812 0.828125 -9.609375 1.390625 -10.171875 Z M 1.96875 -6.34375 C 2.382812 -5.925781 2.921875 -5.71875 3.578125 -5.71875 C 4.234375 -5.71875 4.769531 -5.925781 5.1875 -6.34375 C 5.601562 -6.769531 5.8125 -7.320312 5.8125 -8 C 5.8125 -8.675781 5.601562 -9.226562 5.1875 -9.65625 C 4.769531 -10.082031 4.234375 -10.296875 3.578125 -10.296875 C 2.921875 -10.296875 2.382812 -10.082031 1.96875 -9.65625 C 1.550781 -9.226562 1.34375 -8.675781 1.34375 -8 C 1.34375 -7.320312 1.550781 -6.769531 1.96875 -6.34375 Z M 4.296875 -7.984375 C 4.554688 -7.921875 4.703125 -7.703125 4.734375 -7.328125 C 4.773438 -7.003906 4.835938 -6.742188 4.921875 -6.546875 L 4.03125 -6.546875 C 3.988281 -6.691406 3.953125 -6.898438 3.921875 -7.171875 C 3.890625 -7.421875 3.753906 -7.546875 3.515625 -7.546875 L 3.25 -7.546875 L 3.25 -6.546875 L 2.453125 -6.546875 L 2.453125 -9.578125 L 3.515625 -9.578125 C 3.691406 -9.578125 3.820312 -9.570312 3.90625 -9.5625 C 4.5625 -9.5 4.890625 -9.21875 4.890625 -8.71875 C 4.890625 -8.34375 4.691406 -8.097656 4.296875 -7.984375 Z M 3.734375 -8.203125 C 3.929688 -8.242188 4.03125 -8.367188 4.03125 -8.578125 C 4.03125 -8.785156 3.929688 -8.90625 3.734375 -8.9375 C 3.671875 -8.945312 3.582031 -8.953125 3.46875 -8.953125 L 3.25 -8.953125 L 3.25 -8.1875 L 3.453125 -8.1875 C 3.578125 -8.1875 3.671875 -8.191406 3.734375 -8.203125 Z M 3.734375 -8.203125 "/></g></g></g></svg>